<svg width="14" height="44" viewBox="0 0 14 44" fill="none" xmlns="http://www.w3.org/2000/svg">
<path d="M0.93 10.892H-1.07V12.892H0.93V10.892ZM6.2 10.892H8.2V8.892H6.2V10.892ZM6.2 44H4.2V46H6.2V44ZM13.02 44V46H15.02V44H13.02ZM13.02 0.599997H15.02V-1.4H13.02V0.599997ZM8.432 0.599997V-1.4H7.0286L6.55125 -0.0802753L8.432 0.599997ZM0.93 6.056V4.056H-1.07V6.056H0.93ZM0.93 12.892H6.2V8.892H0.93V12.892ZM4.2 10.892V44H8.2V10.892H4.2ZM6.2 46H13.02V42H6.2V46ZM15.02 44V0.599997H11.02V44H15.02ZM13.02 -1.4H8.432V2.6H13.02V-1.4ZM6.55125 -0.0802753C6.01809 1.39375 5.59271 2.31787 4.90675 2.94993C4.30082 3.50826 3.23527 4.056 0.93 4.056V8.056C3.89473 8.056 6.05318 7.33274 7.61725 5.89156C9.10129 4.52413 9.79191 2.72024 10.3128 1.28027L6.55125 -0.0802753ZM-1.07 6.056V10.892H2.93V6.056H-1.07Z" fill="white"/>
</svg>
