<svg width="21" height="44" viewBox="0 0 21 44" fill="none" xmlns="http://www.w3.org/2000/svg">
<path d="M0.612 44H-1.388V46H0.612V44ZM20.328 44V46H22.328V44H20.328ZM20.328 37.8H22.328V35.8H20.328V37.8ZM7.432 37.8L5.46053 38.1366L5.74452 39.8H7.432V37.8ZM0.612 15.232H-1.388V17.232H0.612V15.232ZM7.06 15.232V17.232H9.06V15.232H7.06ZM12.128 11.264C12.128 16.6639 9.30796 19.7962 5.89518 23.5221C2.53329 27.1924 -1.388 31.4303 -1.388 38.668H2.612C2.612 33.1337 5.44871 29.9316 8.84482 26.2239C12.19 22.5718 16.128 18.3881 16.128 11.264H12.128ZM-1.388 38.668V44H2.612V38.668H-1.388ZM0.612 46H20.328V42H0.612V46ZM22.328 44V37.8H18.328V44H22.328ZM20.328 35.8H7.432V39.8H20.328V35.8ZM9.40347 37.4634C9.20367 36.2931 9.57219 35.0933 10.6427 33.5361C11.7528 31.9213 13.3279 30.314 15.1925 28.229C18.7927 24.2035 22.948 18.9305 22.948 11.016H18.948C18.948 17.3615 15.6943 21.6675 12.211 25.5625C10.5339 27.4377 8.64857 29.376 7.34648 31.2701C6.00481 33.2217 5.00933 35.4939 5.46053 38.1366L9.40347 37.4634ZM22.948 11.016C22.948 7.23573 22.003 3.95405 19.8493 1.60455C17.6693 -0.773679 14.5283 -1.896 10.78 -1.896V2.104C13.7277 2.104 15.6707 2.96568 16.9007 4.30745C18.157 5.67795 18.948 7.85227 18.948 11.016H22.948ZM10.78 -1.896C7.03167 -1.896 3.89074 -0.773679 1.71069 1.60455C-0.443016 3.95405 -1.388 7.23573 -1.388 11.016H2.612C2.612 7.85227 3.40302 5.67795 4.65931 4.30745C5.88927 2.96568 7.83233 2.104 10.78 2.104V-1.896ZM-1.388 11.016V15.232H2.612V11.016H-1.388ZM0.612 17.232H7.06V13.232H0.612V17.232ZM9.06 15.232V10.582H5.06V15.232H9.06ZM9.06 10.582C9.06 9.28036 9.35211 8.78299 9.50152 8.61656C9.61203 8.49346 9.86339 8.304 10.594 8.304V4.304C9.15461 4.304 7.63897 4.70354 6.52498 5.94444C5.44989 7.142 5.06 8.78363 5.06 10.582H9.06ZM10.594 8.304C11.3682 8.304 11.5433 8.48318 11.624 8.58224C11.796 8.79349 12.128 9.45922 12.128 11.264H16.128C16.128 9.16278 15.778 7.34851 14.7255 6.05626C13.5817 4.65181 11.9898 4.304 10.594 4.304V8.304Z" fill="white"/>
</svg>
