<svg width="18" height="18" viewBox="0 0 18 18" fill="none" xmlns="http://www.w3.org/2000/svg">
<path d="M4.11079 1.49397C4.04438 1.40853 3.96055 1.33821 3.86487 1.28767C3.76919 1.23713 3.66385 1.20752 3.55585 1.20082C3.44785 1.19411 3.33966 1.21046 3.23846 1.24879C3.13727 1.28711 3.04538 1.34653 2.96892 1.42309L1.80567 2.58747C1.26229 3.13197 1.06204 3.90259 1.29942 4.57872C2.28462 7.37725 3.88725 9.91807 5.98842 12.0127C8.08308 14.1139 10.6239 15.7165 13.4224 16.7017C14.0985 16.9391 14.8692 16.7388 15.4137 16.1955L16.5769 15.0322C16.6535 14.9557 16.7129 14.8639 16.7512 14.7627C16.7895 14.6615 16.8059 14.5533 16.7992 14.4453C16.7925 14.3373 16.7629 14.2319 16.7123 14.1363C16.6618 14.0406 16.5915 13.9568 16.506 13.8903L13.9107 11.8721C13.8194 11.8013 13.7132 11.7522 13.6002 11.7284C13.4872 11.7046 13.3702 11.7068 13.2582 11.7348L10.7944 12.3502C10.4656 12.4324 10.121 12.428 9.79434 12.3376C9.46767 12.2471 9.16999 12.0735 8.93029 11.8338L6.16729 9.06972C5.92741 8.83013 5.75366 8.53251 5.66297 8.20583C5.57228 7.87915 5.56774 7.53455 5.64979 7.20559L6.26629 4.74184C6.29431 4.62979 6.29652 4.51283 6.27274 4.3998C6.24897 4.28677 6.19983 4.18061 6.12904 4.08934L4.11079 1.49397ZM2.11954 0.574841C2.31641 0.377909 2.55292 0.225112 2.81337 0.126597C3.07382 0.0280818 3.35225 -0.013898 3.63017 0.00344533C3.90809 0.0207886 4.17914 0.0970582 4.42532 0.227189C4.6715 0.357321 4.88718 0.538336 5.05804 0.758216L7.07629 3.35247C7.44642 3.82834 7.57692 4.44822 7.43067 5.03322L6.81529 7.49697C6.78348 7.62457 6.78519 7.75824 6.82028 7.88499C6.85537 8.01174 6.92263 8.12726 7.01554 8.22034L9.77967 10.9845C9.87286 11.0776 9.98857 11.1449 10.1155 11.18C10.2425 11.2151 10.3764 11.2167 10.5042 11.1847L12.9668 10.5693C13.2555 10.4972 13.5568 10.4916 13.848 10.5529C14.1392 10.6143 14.4126 10.7411 14.6475 10.9237L17.2418 12.942C18.1744 13.6676 18.2599 15.0457 17.4252 15.8793L16.2619 17.0426C15.4294 17.8751 14.1852 18.2407 13.0253 17.8323C10.0566 16.7878 7.36122 15.0883 5.13904 12.8598C2.91074 10.638 1.21123 7.94298 0.166542 4.97472C-0.240709 3.81597 0.124917 2.57059 0.957417 1.73809L2.12067 0.574841H2.11954Z" fill="white"/>
</svg>
